<mxfile host="app.diagrams.net" modified="2021-10-11T11:26:59.755Z" agent="5.0 (Windows NT 10.0; Win64; x64) AppleWebKit/537.36 (KHTML, like Gecko) Chrome/94.0.4606.71 Safari/537.36 Edg/94.0.992.38" etag="HaUbzG4tF-Y6TjayUzGj" version="15.5.0" type="github">
  <diagram id="RkiMLek5d7CjkgDaNXFE" name="第 1 页">
    <mxGraphModel dx="813" dy="476" grid="1" gridSize="10" guides="1" tooltips="1" connect="1" arrows="1" fold="1" page="1" pageScale="1" pageWidth="827" pageHeight="1169" math="0" shadow="0">
      <root>
        <mxCell id="0" />
        <mxCell id="1" parent="0" />
        <mxCell id="5Vf515EnHFLj8KpvHSAa-1" value="应用上架/下单/安装" style="swimlane;childLayout=stackLayout;resizeParent=1;resizeParentMax=0;startSize=20;sketch=1;" vertex="1" parent="1">
          <mxGeometry x="10" y="120" width="800" height="780" as="geometry" />
        </mxCell>
        <mxCell id="5Vf515EnHFLj8KpvHSAa-2" value="ipaas控制台" style="swimlane;startSize=20;sketch=1;" vertex="1" parent="5Vf515EnHFLj8KpvHSAa-1">
          <mxGeometry y="20" width="270" height="760" as="geometry" />
        </mxCell>
        <mxCell id="5Vf515EnHFLj8KpvHSAa-7" style="edgeStyle=orthogonalEdgeStyle;rounded=0;sketch=1;orthogonalLoop=1;jettySize=auto;html=1;entryX=0.493;entryY=-0.121;entryDx=0;entryDy=0;entryPerimeter=0;" edge="1" parent="5Vf515EnHFLj8KpvHSAa-2" source="5Vf515EnHFLj8KpvHSAa-5" target="5Vf515EnHFLj8KpvHSAa-6">
          <mxGeometry relative="1" as="geometry" />
        </mxCell>
        <mxCell id="5Vf515EnHFLj8KpvHSAa-5" value="制作方案包" style="strokeWidth=2;html=1;shape=mxgraph.flowchart.start_2;whiteSpace=wrap;sketch=1;" vertex="1" parent="5Vf515EnHFLj8KpvHSAa-2">
          <mxGeometry x="30" y="30" width="70" height="60" as="geometry" />
        </mxCell>
        <mxCell id="5Vf515EnHFLj8KpvHSAa-6" value="审核通过" style="whiteSpace=wrap;html=1;sketch=1;" vertex="1" parent="5Vf515EnHFLj8KpvHSAa-2">
          <mxGeometry x="25" y="150" width="80" height="40" as="geometry" />
        </mxCell>
        <mxCell id="5Vf515EnHFLj8KpvHSAa-3" value="应用市场" style="swimlane;startSize=20;sketch=1;" vertex="1" parent="5Vf515EnHFLj8KpvHSAa-1">
          <mxGeometry x="270" y="20" width="270" height="760" as="geometry" />
        </mxCell>
        <mxCell id="5Vf515EnHFLj8KpvHSAa-11" style="edgeStyle=orthogonalEdgeStyle;rounded=0;sketch=1;orthogonalLoop=1;jettySize=auto;html=1;entryX=0.5;entryY=0;entryDx=0;entryDy=0;" edge="1" parent="5Vf515EnHFLj8KpvHSAa-3" source="5Vf515EnHFLj8KpvHSAa-8" target="5Vf515EnHFLj8KpvHSAa-10">
          <mxGeometry relative="1" as="geometry" />
        </mxCell>
        <mxCell id="5Vf515EnHFLj8KpvHSAa-8" value="创建应用" style="whiteSpace=wrap;html=1;sketch=1;" vertex="1" parent="5Vf515EnHFLj8KpvHSAa-3">
          <mxGeometry x="40" y="90" width="80" height="40" as="geometry" />
        </mxCell>
        <mxCell id="5Vf515EnHFLj8KpvHSAa-10" value="关联方案包" style="whiteSpace=wrap;html=1;sketch=1;" vertex="1" parent="5Vf515EnHFLj8KpvHSAa-3">
          <mxGeometry x="40" y="180" width="80" height="40" as="geometry" />
        </mxCell>
        <mxCell id="5Vf515EnHFLj8KpvHSAa-4" value="客户集成平台" style="swimlane;startSize=20;sketch=1;" vertex="1" parent="5Vf515EnHFLj8KpvHSAa-1">
          <mxGeometry x="540" y="20" width="260" height="760" as="geometry" />
        </mxCell>
        <mxCell id="5Vf515EnHFLj8KpvHSAa-9" style="edgeStyle=orthogonalEdgeStyle;rounded=0;sketch=1;orthogonalLoop=1;jettySize=auto;html=1;entryX=0;entryY=0.5;entryDx=0;entryDy=0;" edge="1" parent="5Vf515EnHFLj8KpvHSAa-1" source="5Vf515EnHFLj8KpvHSAa-6" target="5Vf515EnHFLj8KpvHSAa-8">
          <mxGeometry relative="1" as="geometry" />
        </mxCell>
      </root>
    </mxGraphModel>
  </diagram>
</mxfile>
